<svg xmlns="http://www.w3.org/2000/svg" viewBox="0 0 100 100" width="128" height="128">
  <defs>
    <linearGradient id="bg" x1="0" y1="0" x2="1" y2="1">
      <stop offset="0" stop-color="#fb7185"/>
      <stop offset="1" stop-color="#22c55e"/>
    </linearGradient>
  </defs>
  <rect width="100" height="100" rx="24" fill="url(#bg)"/>
  <circle cx="50" cy="55" r="26" fill="#f7d2b8"/>
  <path d="M28 43c2-10 10-20 22-20s20 10 22 20c-4-3-11-7-22-7s-18 4-22 7z" fill="#0b1220" opacity="0.9"/>
  <path d="M36 47c3 6 7 9 14 9s11-3 14-9" fill="none" stroke="#0b1220" stroke-width="4" stroke-linecap="round" opacity="0.35"/>
  <circle cx="40" cy="55" r="3" fill="#0b1220" opacity="0.8"/>
  <circle cx="60" cy="55" r="3" fill="#0b1220" opacity="0.8"/>
  <path d="M43 67c5 4 9 4 14 0" fill="none" stroke="#0b1220" stroke-width="3" stroke-linecap="round" opacity="0.7"/>
</svg>
