<svg xmlns="http://www.w3.org/2000/svg" viewBox="0 0 100 100" width="128" height="128">
  <defs>
    <linearGradient id="bg" x1="0" y1="1" x2="1" y2="0">
      <stop offset="0" stop-color="#a78bfa"/>
      <stop offset="1" stop-color="#34d399"/>
    </linearGradient>
  </defs>
  <rect width="100" height="100" rx="24" fill="url(#bg)"/>
  <circle cx="50" cy="55" r="26" fill="#f1c7a6"/>
  <path d="M26 42c6-12 16-18 24-18s18 6 24 18c-6-2-14-4-24-4s-18 2-24 4z" fill="#1f2937" opacity="0.9"/>
  <path d="M30 44c6 8 14 10 20 10s14-2 20-10" fill="none" stroke="#111827" stroke-width="4" stroke-linecap="round" opacity="0.35"/>
  <circle cx="41" cy="55" r="3" fill="#111827" opacity="0.8"/>
  <circle cx="59" cy="55" r="3" fill="#111827" opacity="0.8"/>
  <path d="M44 67c4 3 8 3 12 0" fill="none" stroke="#111827" stroke-width="3" stroke-linecap="round" opacity="0.7"/>
</svg>
